<svg width="466" height="539" viewBox="0 0 466 539" fill="none" xmlns="http://www.w3.org/2000/svg">
<rect x="0.5" y="48.5" width="417" height="490" rx="9.5" fill="#F7F7FC" stroke="#5541D7"/>
<path d="M24.764 495.812L23.912 495.188L25.028 493.796L23.3 493.316L23.636 492.308L25.292 492.944L25.208 491.168H26.276L26.192 492.944L27.86 492.308L28.184 493.316L26.468 493.784L27.584 495.188L26.72 495.812L25.748 494.312L24.764 495.812ZM31.8973 500L35.7253 491.54H37.0213L40.8973 500H39.3253L38.2933 497.624L38.9173 498.044H33.8413L34.4893 497.624L33.4573 500H31.8973ZM36.3613 493.196L34.6693 497.204L34.3573 496.832H38.3893L38.1373 497.204L36.4093 493.196H36.3613ZM41.7733 500V495.452C41.7733 495.204 41.7653 494.952 41.7493 494.696C41.7333 494.44 41.7093 494.188 41.6773 493.94H43.1293L43.2493 495.14H43.1053C43.2973 494.716 43.5813 494.392 43.9573 494.168C44.3333 493.936 44.7693 493.82 45.2653 493.82C45.9773 493.82 46.5133 494.02 46.8733 494.42C47.2333 494.82 47.4133 495.444 47.4133 496.292V500H45.9133V496.364C45.9133 495.876 45.8173 495.528 45.6253 495.32C45.4413 495.104 45.1613 494.996 44.7853 494.996C44.3213 494.996 43.9533 495.14 43.6813 495.428C43.4093 495.716 43.2733 496.1 43.2733 496.58V500H41.7733ZM54.7568 500.12C54.2288 500.12 53.7648 499.996 53.3648 499.748C52.9648 499.492 52.6528 499.128 52.4288 498.656C52.2048 498.184 52.0928 497.62 52.0928 496.964C52.0928 496.308 52.2048 495.748 52.4288 495.284C52.6528 494.812 52.9648 494.452 53.3648 494.204C53.7648 493.948 54.2288 493.82 54.7568 493.82C55.2688 493.82 55.7168 493.948 56.1008 494.204C56.4928 494.452 56.7528 494.788 56.8808 495.212H56.7488L56.8808 493.94H58.3208C58.2968 494.188 58.2728 494.44 58.2488 494.696C58.2328 494.952 58.2248 495.204 58.2248 495.452V500H56.7368L56.7248 498.752H56.8688C56.7408 499.168 56.4808 499.5 56.0888 499.748C55.6968 499.996 55.2528 500.12 54.7568 500.12ZM55.1768 498.968C55.6488 498.968 56.0288 498.804 56.3168 498.476C56.6048 498.14 56.7488 497.636 56.7488 496.964C56.7488 496.292 56.6048 495.792 56.3168 495.464C56.0288 495.136 55.6488 494.972 55.1768 494.972C54.7048 494.972 54.3248 495.136 54.0368 495.464C53.7488 495.792 53.6048 496.292 53.6048 496.964C53.6048 497.636 53.7448 498.14 54.0248 498.476C54.3128 498.804 54.6968 498.968 55.1768 498.968ZM63.3862 500.12C62.8742 500.12 62.4262 499.996 62.0422 499.748C61.6582 499.492 61.4022 499.148 61.2742 498.716H61.4062V500H59.9182V491.168H61.4182V495.176H61.2742C61.4102 494.76 61.6702 494.432 62.0542 494.192C62.4382 493.944 62.8822 493.82 63.3862 493.82C63.9222 493.82 64.3902 493.948 64.7902 494.204C65.1902 494.46 65.5022 494.824 65.7262 495.296C65.9502 495.76 66.0622 496.32 66.0622 496.976C66.0622 497.632 65.9502 498.196 65.7262 498.668C65.5022 499.132 65.1862 499.492 64.7782 499.748C64.3782 499.996 63.9142 500.12 63.3862 500.12ZM62.9662 498.968C63.4382 498.968 63.8182 498.804 64.1062 498.476C64.4022 498.148 64.5502 497.648 64.5502 496.976C64.5502 496.304 64.4022 495.804 64.1062 495.476C63.8182 495.14 63.4382 494.972 62.9662 494.972C62.4942 494.972 62.1142 495.136 61.8262 495.464C61.5382 495.792 61.3942 496.292 61.3942 496.964C61.3942 497.636 61.5382 498.14 61.8262 498.476C62.1142 498.804 62.4942 498.968 62.9662 498.968ZM69.5796 500.12C69.0596 500.12 68.5796 500.06 68.1396 499.94C67.7076 499.812 67.3436 499.636 67.0476 499.412L67.4676 498.404C67.7716 498.612 68.1076 498.772 68.4756 498.884C68.8436 498.996 69.2156 499.052 69.5916 499.052C69.9916 499.052 70.2876 498.984 70.4796 498.848C70.6796 498.712 70.7796 498.528 70.7796 498.296C70.7796 498.112 70.7156 497.968 70.5876 497.864C70.4676 497.752 70.2716 497.668 69.9996 497.612L68.7996 497.384C68.2876 497.272 67.8956 497.08 67.6236 496.808C67.3596 496.536 67.2276 496.18 67.2276 495.74C67.2276 495.364 67.3276 495.032 67.5276 494.744C67.7356 494.456 68.0276 494.232 68.4036 494.072C68.7876 493.904 69.2356 493.82 69.7476 493.82C70.1956 493.82 70.6156 493.88 71.0076 494C71.4076 494.12 71.7436 494.3 72.0156 494.54L71.5836 495.512C71.3356 495.312 71.0516 495.156 70.7316 495.044C70.4116 494.932 70.0996 494.876 69.7956 494.876C69.3796 494.876 69.0756 494.952 68.8836 495.104C68.6916 495.248 68.5956 495.436 68.5956 495.668C68.5956 495.844 68.6516 495.992 68.7636 496.112C68.8836 496.224 69.0676 496.308 69.3156 496.364L70.5156 496.592C71.0516 496.696 71.4556 496.88 71.7276 497.144C72.0076 497.4 72.1476 497.752 72.1476 498.2C72.1476 498.6 72.0396 498.944 71.8236 499.232C71.6076 499.52 71.3076 499.74 70.9236 499.892C70.5396 500.044 70.0916 500.12 69.5796 500.12ZM76.0247 500.12C75.3047 500.12 74.7607 499.932 74.3927 499.556C74.0247 499.18 73.8407 498.616 73.8407 497.864V495.068H72.6767V493.94H73.8407V492.392L75.3407 492.008V493.94H76.9607V495.068H75.3407V497.768C75.3407 498.184 75.4207 498.476 75.5807 498.644C75.7407 498.812 75.9607 498.896 76.2407 498.896C76.3927 498.896 76.5207 498.884 76.6247 498.86C76.7367 498.836 76.8447 498.804 76.9487 498.764V499.952C76.8127 500.008 76.6607 500.048 76.4927 500.072C76.3327 500.104 76.1767 500.12 76.0247 500.12ZM78.0276 500V495.488C78.0276 495.232 78.0196 494.972 78.0036 494.708C77.9956 494.444 77.9756 494.188 77.9436 493.94H79.3956L79.5636 495.596H79.3236C79.4036 495.196 79.5356 494.864 79.7196 494.6C79.9116 494.336 80.1436 494.14 80.4156 494.012C80.6876 493.884 80.9836 493.82 81.3036 493.82C81.4476 493.82 81.5636 493.828 81.6516 493.844C81.7396 493.852 81.8276 493.872 81.9156 493.904L81.9036 495.224C81.7516 495.16 81.6196 495.12 81.5076 495.104C81.4036 495.088 81.2716 495.08 81.1116 495.08C80.7676 495.08 80.4756 495.152 80.2356 495.296C80.0036 495.44 79.8276 495.64 79.7076 495.896C79.5956 496.152 79.5396 496.444 79.5396 496.772V500H78.0276ZM85.0919 500.12C84.5639 500.12 84.0999 499.996 83.6999 499.748C83.2999 499.492 82.9879 499.128 82.7639 498.656C82.5399 498.184 82.4279 497.62 82.4279 496.964C82.4279 496.308 82.5399 495.748 82.7639 495.284C82.9879 494.812 83.2999 494.452 83.6999 494.204C84.0999 493.948 84.5639 493.82 85.0919 493.82C85.6039 493.82 86.0519 493.948 86.4359 494.204C86.8279 494.452 87.0879 494.788 87.2159 495.212H87.0839L87.2159 493.94H88.6559C88.6319 494.188 88.6079 494.44 88.5839 494.696C88.5679 494.952 88.5599 495.204 88.5599 495.452V500H87.0719L87.0599 498.752H87.2039C87.0759 499.168 86.8159 499.5 86.4239 499.748C86.0319 499.996 85.5879 500.12 85.0919 500.12ZM85.5119 498.968C85.9839 498.968 86.3639 498.804 86.6519 498.476C86.9399 498.14 87.0839 497.636 87.0839 496.964C87.0839 496.292 86.9399 495.792 86.6519 495.464C86.3639 495.136 85.9839 494.972 85.5119 494.972C85.0399 494.972 84.6599 495.136 84.3719 495.464C84.0839 495.792 83.9399 496.292 83.9399 496.964C83.9399 497.636 84.0799 498.14 84.3599 498.476C84.6479 498.804 85.0319 498.968 85.5119 498.968ZM93.0373 500.12C92.4133 500.12 91.8653 499.992 91.3933 499.736C90.9293 499.48 90.5693 499.116 90.3133 498.644C90.0573 498.164 89.9293 497.596 89.9293 496.94C89.9293 496.284 90.0573 495.724 90.3133 495.26C90.5773 494.796 90.9413 494.44 91.4053 494.192C91.8693 493.944 92.4133 493.82 93.0373 493.82C93.4373 493.82 93.8253 493.884 94.2013 494.012C94.5853 494.132 94.8973 494.308 95.1373 494.54L94.6813 495.584C94.4653 495.384 94.2213 495.236 93.9493 495.14C93.6853 495.036 93.4253 494.984 93.1693 494.984C92.6333 494.984 92.2133 495.152 91.9093 495.488C91.6133 495.824 91.4653 496.312 91.4653 496.952C91.4653 497.592 91.6133 498.084 91.9093 498.428C92.2133 498.772 92.6333 498.944 93.1693 498.944C93.4173 498.944 93.6733 498.896 93.9373 498.8C94.2093 498.704 94.4573 498.556 94.6813 498.356L95.1373 499.388C94.8893 499.62 94.5733 499.8 94.1893 499.928C93.8133 500.056 93.4293 500.12 93.0373 500.12ZM98.9757 500.12C98.2557 500.12 97.7117 499.932 97.3437 499.556C96.9757 499.18 96.7917 498.616 96.7917 497.864V495.068H95.6277V493.94H96.7917V492.392L98.2917 492.008V493.94H99.9117V495.068H98.2917V497.768C98.2917 498.184 98.3717 498.476 98.5317 498.644C98.6917 498.812 98.9117 498.896 99.1917 498.896C99.3437 498.896 99.4717 498.884 99.5757 498.86C99.6877 498.836 99.7957 498.804 99.8997 498.764V499.952C99.7637 500.008 99.6117 500.048 99.4437 500.072C99.2837 500.104 99.1277 500.12 98.9757 500.12ZM107.271 500.12C106.255 500.12 105.459 499.84 104.883 499.28C104.307 498.72 104.019 497.952 104.019 496.976C104.019 496.344 104.143 495.792 104.391 495.32C104.639 494.848 104.983 494.48 105.423 494.216C105.871 493.952 106.391 493.82 106.983 493.82C107.567 493.82 108.055 493.944 108.447 494.192C108.839 494.44 109.135 494.788 109.335 495.236C109.543 495.684 109.647 496.208 109.647 496.808V497.204H105.231V496.412H108.579L108.375 496.58C108.375 496.02 108.255 495.592 108.015 495.296C107.783 495 107.443 494.852 106.995 494.852C106.499 494.852 106.115 495.028 105.843 495.38C105.579 495.732 105.447 496.224 105.447 496.856V497.012C105.447 497.668 105.607 498.16 105.927 498.488C106.255 498.808 106.715 498.968 107.307 498.968C107.651 498.968 107.971 498.924 108.267 498.836C108.571 498.74 108.859 498.588 109.131 498.38L109.575 499.388C109.287 499.62 108.943 499.8 108.543 499.928C108.143 500.056 107.719 500.12 107.271 500.12ZM110.007 500L112.827 496.532V497.216L110.163 493.94H111.939L113.679 496.184H113.139L114.879 493.94H116.643L114.003 497.216V496.532L116.811 500H115.023L113.139 497.588H113.679L111.783 500H110.007ZM119.893 500.12C119.365 500.12 118.901 499.996 118.501 499.748C118.101 499.492 117.789 499.128 117.565 498.656C117.341 498.184 117.229 497.62 117.229 496.964C117.229 496.308 117.341 495.748 117.565 495.284C117.789 494.812 118.101 494.452 118.501 494.204C118.901 493.948 119.365 493.82 119.893 493.82C120.405 493.82 120.853 493.948 121.237 494.204C121.629 494.452 121.889 494.788 122.017 495.212H121.885L122.017 493.94H123.457C123.433 494.188 123.409 494.44 123.385 494.696C123.369 494.952 123.361 495.204 123.361 495.452V500H121.873L121.861 498.752H122.005C121.877 499.168 121.617 499.5 121.225 499.748C120.833 499.996 120.389 500.12 119.893 500.12ZM120.313 498.968C120.785 498.968 121.165 498.804 121.453 498.476C121.741 498.14 121.885 497.636 121.885 496.964C121.885 496.292 121.741 495.792 121.453 495.464C121.165 495.136 120.785 494.972 120.313 494.972C119.841 494.972 119.461 495.136 119.173 495.464C118.885 495.792 118.741 496.292 118.741 496.964C118.741 497.636 118.881 498.14 119.161 498.476C119.449 498.804 119.833 498.968 120.313 498.968ZM125.055 500V495.452C125.055 495.204 125.047 494.952 125.031 494.696C125.015 494.44 124.991 494.188 124.959 493.94H126.411L126.531 495.14H126.387C126.555 494.724 126.811 494.4 127.155 494.168C127.507 493.936 127.923 493.82 128.403 493.82C128.883 493.82 129.279 493.936 129.591 494.168C129.911 494.392 130.135 494.744 130.263 495.224H130.071C130.239 494.792 130.515 494.452 130.899 494.204C131.283 493.948 131.723 493.82 132.219 493.82C132.899 493.82 133.407 494.02 133.743 494.42C134.079 494.82 134.247 495.444 134.247 496.292V500H132.747V496.352C132.747 495.872 132.667 495.528 132.507 495.32C132.347 495.104 132.091 494.996 131.739 494.996C131.323 494.996 130.995 495.144 130.755 495.44C130.515 495.728 130.395 496.12 130.395 496.616V500H128.895V496.352C128.895 495.872 128.815 495.528 128.655 495.32C128.495 495.104 128.239 494.996 127.887 494.996C127.471 494.996 127.143 495.144 126.903 495.44C126.671 495.728 126.555 496.12 126.555 496.616V500H125.055ZM135.908 502.592V495.452C135.908 495.204 135.9 494.952 135.884 494.696C135.868 494.44 135.844 494.188 135.812 493.94H137.264L137.396 495.212H137.264C137.384 494.788 137.636 494.452 138.02 494.204C138.412 493.948 138.864 493.82 139.376 493.82C139.912 493.82 140.38 493.948 140.78 494.204C141.18 494.452 141.492 494.812 141.716 495.284C141.94 495.748 142.052 496.308 142.052 496.964C142.052 497.62 141.94 498.184 141.716 498.656C141.492 499.128 141.18 499.492 140.78 499.748C140.38 499.996 139.912 500.12 139.376 500.12C138.872 500.12 138.428 499.996 138.044 499.748C137.66 499.5 137.404 499.168 137.276 498.752H137.408V502.592H135.908ZM138.956 498.968C139.436 498.968 139.82 498.804 140.108 498.476C140.396 498.14 140.54 497.636 140.54 496.964C140.54 496.292 140.396 495.792 140.108 495.464C139.82 495.136 139.436 494.972 138.956 494.972C138.484 494.972 138.104 495.136 137.816 495.464C137.528 495.792 137.384 496.292 137.384 496.964C137.384 497.636 137.528 498.14 137.816 498.476C138.104 498.804 138.484 498.968 138.956 498.968ZM143.409 500V491.168H144.909V500H143.409ZM149.526 500.12C148.51 500.12 147.714 499.84 147.138 499.28C146.562 498.72 146.274 497.952 146.274 496.976C146.274 496.344 146.398 495.792 146.646 495.32C146.894 494.848 147.238 494.48 147.678 494.216C148.126 493.952 148.646 493.82 149.238 493.82C149.822 493.82 150.31 493.944 150.702 494.192C151.094 494.44 151.39 494.788 151.59 495.236C151.798 495.684 151.902 496.208 151.902 496.808V497.204H147.486V496.412H150.834L150.63 496.58C150.63 496.02 150.51 495.592 150.27 495.296C150.038 495 149.698 494.852 149.25 494.852C148.754 494.852 148.37 495.028 148.098 495.38C147.834 495.732 147.702 496.224 147.702 496.856V497.012C147.702 497.668 147.862 498.16 148.182 498.488C148.51 498.808 148.97 498.968 149.562 498.968C149.906 498.968 150.226 498.924 150.522 498.836C150.826 498.74 151.114 498.588 151.386 498.38L151.83 499.388C151.542 499.62 151.198 499.8 150.798 499.928C150.398 500.056 149.974 500.12 149.526 500.12ZM159.177 500.12C158.457 500.12 157.913 499.932 157.545 499.556C157.177 499.18 156.993 498.616 156.993 497.864V495.068H155.829V493.94H156.993V492.392L158.493 492.008V493.94H160.113V495.068H158.493V497.768C158.493 498.184 158.573 498.476 158.733 498.644C158.893 498.812 159.113 498.896 159.393 498.896C159.545 498.896 159.673 498.884 159.777 498.86C159.889 498.836 159.997 498.804 160.101 498.764V499.952C159.965 500.008 159.813 500.048 159.645 500.072C159.485 500.104 159.329 500.12 159.177 500.12ZM163.87 500.12C163.246 500.12 162.706 499.992 162.25 499.736C161.794 499.48 161.438 499.116 161.182 498.644C160.934 498.172 160.81 497.612 160.81 496.964C160.81 496.316 160.934 495.76 161.182 495.296C161.438 494.824 161.794 494.46 162.25 494.204C162.706 493.948 163.246 493.82 163.87 493.82C164.494 493.82 165.034 493.948 165.49 494.204C165.954 494.46 166.31 494.824 166.558 495.296C166.814 495.76 166.942 496.316 166.942 496.964C166.942 497.612 166.814 498.172 166.558 498.644C166.31 499.116 165.954 499.48 165.49 499.736C165.034 499.992 164.494 500.12 163.87 500.12ZM163.87 498.968C164.342 498.968 164.718 498.804 164.998 498.476C165.278 498.14 165.418 497.636 165.418 496.964C165.418 496.292 165.278 495.792 164.998 495.464C164.718 495.136 164.342 494.972 163.87 494.972C163.398 494.972 163.022 495.136 162.742 495.464C162.462 495.792 162.322 496.292 162.322 496.964C162.322 497.636 162.462 498.14 162.742 498.476C163.022 498.804 163.398 498.968 163.87 498.968ZM173.832 500.12C173.088 500.12 172.532 499.916 172.164 499.508C171.796 499.1 171.612 498.476 171.612 497.636V493.94H173.112V497.624C173.112 498.072 173.204 498.404 173.388 498.62C173.572 498.828 173.852 498.932 174.228 498.932C174.652 498.932 174.996 498.788 175.26 498.5C175.532 498.212 175.668 497.832 175.668 497.36V493.94H177.168V500H175.704V498.764H175.872C175.696 499.196 175.428 499.532 175.068 499.772C174.716 500.004 174.304 500.12 173.832 500.12ZM178.856 500V495.452C178.856 495.204 178.848 494.952 178.832 494.696C178.816 494.44 178.792 494.188 178.76 493.94H180.212L180.332 495.14H180.188C180.38 494.716 180.664 494.392 181.04 494.168C181.416 493.936 181.852 493.82 182.348 493.82C183.06 493.82 183.596 494.02 183.956 494.42C184.316 494.82 184.496 495.444 184.496 496.292V500H182.996V496.364C182.996 495.876 182.9 495.528 182.708 495.32C182.524 495.104 182.244 494.996 181.868 494.996C181.404 494.996 181.036 495.14 180.764 495.428C180.492 495.716 180.356 496.1 180.356 496.58V500H178.856ZM188.499 500.12C187.971 500.12 187.503 499.996 187.095 499.748C186.695 499.492 186.383 499.128 186.159 498.656C185.935 498.184 185.823 497.62 185.823 496.964C185.823 496.308 185.935 495.748 186.159 495.284C186.383 494.812 186.695 494.452 187.095 494.204C187.503 493.948 187.971 493.82 188.499 493.82C189.003 493.82 189.447 493.944 189.831 494.192C190.223 494.432 190.483 494.76 190.611 495.176H190.455V491.168H191.955V500H190.479V498.716H190.623C190.495 499.148 190.235 499.492 189.843 499.748C189.459 499.996 189.011 500.12 188.499 500.12ZM188.919 498.968C189.391 498.968 189.771 498.804 190.059 498.476C190.347 498.14 190.491 497.636 190.491 496.964C190.491 496.292 190.347 495.792 190.059 495.464C189.771 495.136 189.391 494.972 188.919 494.972C188.447 494.972 188.063 495.136 187.767 495.464C187.479 495.792 187.335 496.292 187.335 496.964C187.335 497.636 187.479 498.14 187.767 498.476C188.063 498.804 188.447 498.968 188.919 498.968ZM196.576 500.12C195.56 500.12 194.764 499.84 194.188 499.28C193.612 498.72 193.324 497.952 193.324 496.976C193.324 496.344 193.448 495.792 193.696 495.32C193.944 494.848 194.288 494.48 194.728 494.216C195.176 493.952 195.696 493.82 196.288 493.82C196.872 493.82 197.36 493.944 197.752 494.192C198.144 494.44 198.44 494.788 198.64 495.236C198.848 495.684 198.952 496.208 198.952 496.808V497.204H194.536V496.412H197.884L197.68 496.58C197.68 496.02 197.56 495.592 197.32 495.296C197.088 495 196.748 494.852 196.3 494.852C195.804 494.852 195.42 495.028 195.148 495.38C194.884 495.732 194.752 496.224 194.752 496.856V497.012C194.752 497.668 194.912 498.16 195.232 498.488C195.56 498.808 196.02 498.968 196.612 498.968C196.956 498.968 197.276 498.924 197.572 498.836C197.876 498.74 198.164 498.588 198.436 498.38L198.88 499.388C198.592 499.62 198.248 499.8 197.848 499.928C197.448 500.056 197.024 500.12 196.576 500.12ZM200.271 500V495.488C200.271 495.232 200.263 494.972 200.247 494.708C200.239 494.444 200.219 494.188 200.187 493.94H201.639L201.807 495.596H201.567C201.647 495.196 201.779 494.864 201.963 494.6C202.155 494.336 202.387 494.14 202.659 494.012C202.931 493.884 203.227 493.82 203.547 493.82C203.691 493.82 203.807 493.828 203.895 493.844C203.983 493.852 204.071 493.872 204.159 493.904L204.147 495.224C203.995 495.16 203.863 495.12 203.751 495.104C203.647 495.088 203.515 495.08 203.355 495.08C203.011 495.08 202.719 495.152 202.479 495.296C202.247 495.44 202.071 495.64 201.951 495.896C201.839 496.152 201.783 496.444 201.783 496.772V500H200.271ZM207.155 500.12C206.635 500.12 206.155 500.06 205.715 499.94C205.283 499.812 204.919 499.636 204.623 499.412L205.043 498.404C205.347 498.612 205.683 498.772 206.051 498.884C206.419 498.996 206.791 499.052 207.167 499.052C207.567 499.052 207.863 498.984 208.055 498.848C208.255 498.712 208.355 498.528 208.355 498.296C208.355 498.112 208.291 497.968 208.163 497.864C208.043 497.752 207.847 497.668 207.575 497.612L206.375 497.384C205.863 497.272 205.471 497.08 205.199 496.808C204.935 496.536 204.803 496.18 204.803 495.74C204.803 495.364 204.903 495.032 205.103 494.744C205.311 494.456 205.603 494.232 205.979 494.072C206.363 493.904 206.811 493.82 207.323 493.82C207.771 493.82 208.191 493.88 208.583 494C208.983 494.12 209.319 494.3 209.591 494.54L209.159 495.512C208.911 495.312 208.627 495.156 208.307 495.044C207.987 494.932 207.675 494.876 207.371 494.876C206.955 494.876 206.651 494.952 206.459 495.104C206.267 495.248 206.171 495.436 206.171 495.668C206.171 495.844 206.227 495.992 206.339 496.112C206.459 496.224 206.643 496.308 206.891 496.364L208.091 496.592C208.627 496.696 209.031 496.88 209.303 497.144C209.583 497.4 209.723 497.752 209.723 498.2C209.723 498.6 209.615 498.944 209.399 499.232C209.183 499.52 208.883 499.74 208.499 499.892C208.115 500.044 207.667 500.12 207.155 500.12ZM213.6 500.12C212.88 500.12 212.336 499.932 211.968 499.556C211.6 499.18 211.416 498.616 211.416 497.864V495.068H210.252V493.94H211.416V492.392L212.916 492.008V493.94H214.536V495.068H212.916V497.768C212.916 498.184 212.996 498.476 213.156 498.644C213.316 498.812 213.536 498.896 213.816 498.896C213.968 498.896 214.096 498.884 214.2 498.86C214.312 498.836 214.42 498.804 214.524 498.764V499.952C214.388 500.008 214.236 500.048 214.068 500.072C213.908 500.104 213.752 500.12 213.6 500.12ZM217.955 500.12C217.427 500.12 216.963 499.996 216.563 499.748C216.163 499.492 215.851 499.128 215.627 498.656C215.403 498.184 215.291 497.62 215.291 496.964C215.291 496.308 215.403 495.748 215.627 495.284C215.851 494.812 216.163 494.452 216.563 494.204C216.963 493.948 217.427 493.82 217.955 493.82C218.467 493.82 218.915 493.948 219.299 494.204C219.691 494.452 219.951 494.788 220.079 495.212H219.947L220.079 493.94H221.519C221.495 494.188 221.471 494.44 221.447 494.696C221.431 494.952 221.423 495.204 221.423 495.452V500H219.935L219.923 498.752H220.067C219.939 499.168 219.679 499.5 219.287 499.748C218.895 499.996 218.451 500.12 217.955 500.12ZM218.375 498.968C218.847 498.968 219.227 498.804 219.515 498.476C219.803 498.14 219.947 497.636 219.947 496.964C219.947 496.292 219.803 495.792 219.515 495.464C219.227 495.136 218.847 494.972 218.375 494.972C217.903 494.972 217.523 495.136 217.235 495.464C216.947 495.792 216.803 496.292 216.803 496.964C216.803 497.636 216.943 498.14 217.223 498.476C217.511 498.804 217.895 498.968 218.375 498.968ZM223.116 500V495.452C223.116 495.204 223.108 494.952 223.092 494.696C223.076 494.44 223.052 494.188 223.02 493.94H224.472L224.592 495.14H224.448C224.64 494.716 224.924 494.392 225.3 494.168C225.676 493.936 226.112 493.82 226.608 493.82C227.32 493.82 227.856 494.02 228.216 494.42C228.576 494.82 228.756 495.444 228.756 496.292V500H227.256V496.364C227.256 495.876 227.16 495.528 226.968 495.32C226.784 495.104 226.504 494.996 226.128 494.996C225.664 494.996 225.296 495.14 225.024 495.428C224.752 495.716 224.616 496.1 224.616 496.58V500H223.116ZM232.759 500.12C232.231 500.12 231.763 499.996 231.355 499.748C230.955 499.492 230.643 499.128 230.419 498.656C230.195 498.184 230.083 497.62 230.083 496.964C230.083 496.308 230.195 495.748 230.419 495.284C230.643 494.812 230.955 494.452 231.355 494.204C231.763 493.948 232.231 493.82 232.759 493.82C233.263 493.82 233.707 493.944 234.091 494.192C234.483 494.432 234.743 494.76 234.871 495.176H234.715V491.168H236.215V500H234.739V498.716H234.883C234.755 499.148 234.495 499.492 234.103 499.748C233.719 499.996 233.271 500.12 232.759 500.12ZM233.179 498.968C233.651 498.968 234.031 498.804 234.319 498.476C234.607 498.14 234.751 497.636 234.751 496.964C234.751 496.292 234.607 495.792 234.319 495.464C234.031 495.136 233.651 494.972 233.179 494.972C232.707 494.972 232.323 495.136 232.027 495.464C231.739 495.792 231.595 496.292 231.595 496.964C231.595 497.636 231.739 498.14 232.027 498.476C232.323 498.804 232.707 498.968 233.179 498.968ZM33.8749 514V505.168H35.3749V509.152H35.2069C35.3909 508.72 35.6749 508.392 36.0589 508.168C36.4429 507.936 36.8829 507.82 37.3789 507.82C38.0989 507.82 38.6349 508.024 38.9869 508.432C39.3389 508.832 39.5149 509.444 39.5149 510.268V514H38.0149V510.34C38.0149 509.868 37.9229 509.528 37.7389 509.32C37.5629 509.104 37.2789 508.996 36.8869 508.996C36.4309 508.996 36.0629 509.14 35.7829 509.428C35.5109 509.708 35.3749 510.084 35.3749 510.556V514H33.8749ZM43.9014 514.12C43.2774 514.12 42.7374 513.992 42.2814 513.736C41.8254 513.48 41.4694 513.116 41.2134 512.644C40.9654 512.172 40.8414 511.612 40.8414 510.964C40.8414 510.316 40.9654 509.76 41.2134 509.296C41.4694 508.824 41.8254 508.46 42.2814 508.204C42.7374 507.948 43.2774 507.82 43.9014 507.82C44.5254 507.82 45.0654 507.948 45.5214 508.204C45.9854 508.46 46.3414 508.824 46.5894 509.296C46.8454 509.76 46.9734 510.316 46.9734 510.964C46.9734 511.612 46.8454 512.172 46.5894 512.644C46.3414 513.116 45.9854 513.48 45.5214 513.736C45.0654 513.992 44.5254 514.12 43.9014 514.12ZM43.9014 512.968C44.3734 512.968 44.7494 512.804 45.0294 512.476C45.3094 512.14 45.4494 511.636 45.4494 510.964C45.4494 510.292 45.3094 509.792 45.0294 509.464C44.7494 509.136 44.3734 508.972 43.9014 508.972C43.4294 508.972 43.0534 509.136 42.7734 509.464C42.4934 509.792 42.3534 510.292 42.3534 510.964C42.3534 511.636 42.4934 512.14 42.7734 512.476C43.0534 512.804 43.4294 512.968 43.9014 512.968ZM49.8897 514L47.5257 507.94H49.0737L50.7777 512.656H50.4657L52.1937 507.94H53.2617L54.9777 512.656H54.7017L56.3937 507.94H57.8577L55.4937 514H54.1737L52.3617 509.176H52.9977L51.2217 514H49.8897ZM64.5565 514.12C64.0285 514.12 63.5645 513.996 63.1645 513.748C62.7645 513.492 62.4525 513.128 62.2285 512.656C62.0045 512.184 61.8925 511.62 61.8925 510.964C61.8925 510.308 62.0045 509.748 62.2285 509.284C62.4525 508.812 62.7645 508.452 63.1645 508.204C63.5645 507.948 64.0285 507.82 64.5565 507.82C65.0685 507.82 65.5165 507.948 65.9005 508.204C66.2925 508.452 66.5525 508.788 66.6805 509.212H66.5485L66.6805 507.94H68.1205C68.0965 508.188 68.0725 508.44 68.0485 508.696C68.0325 508.952 68.0245 509.204 68.0245 509.452V514H66.5365L66.5245 512.752H66.6685C66.5405 513.168 66.2805 513.5 65.8885 513.748C65.4965 513.996 65.0525 514.12 64.5565 514.12ZM64.9765 512.968C65.4485 512.968 65.8285 512.804 66.1165 512.476C66.4045 512.14 66.5485 511.636 66.5485 510.964C66.5485 510.292 66.4045 509.792 66.1165 509.464C65.8285 509.136 65.4485 508.972 64.9765 508.972C64.5045 508.972 64.1245 509.136 63.8365 509.464C63.5485 509.792 63.4045 510.292 63.4045 510.964C63.4045 511.636 63.5445 512.14 63.8245 512.476C64.1125 512.804 64.4965 512.968 64.9765 512.968ZM75.8548 514.12C75.2308 514.12 74.6828 513.992 74.2108 513.736C73.7468 513.48 73.3868 513.116 73.1308 512.644C72.8748 512.164 72.7468 511.596 72.7468 510.94C72.7468 510.284 72.8748 509.724 73.1308 509.26C73.3948 508.796 73.7588 508.44 74.2228 508.192C74.6868 507.944 75.2308 507.82 75.8548 507.82C76.2548 507.82 76.6428 507.884 77.0188 508.012C77.4028 508.132 77.7148 508.308 77.9548 508.54L77.4988 509.584C77.2828 509.384 77.0388 509.236 76.7668 509.14C76.5028 509.036 76.2428 508.984 75.9868 508.984C75.4508 508.984 75.0308 509.152 74.7268 509.488C74.4308 509.824 74.2828 510.312 74.2828 510.952C74.2828 511.592 74.4308 512.084 74.7268 512.428C75.0308 512.772 75.4508 512.944 75.9868 512.944C76.2348 512.944 76.4908 512.896 76.7548 512.8C77.0268 512.704 77.2748 512.556 77.4988 512.356L77.9548 513.388C77.7068 513.62 77.3908 513.8 77.0068 513.928C76.6308 514.056 76.2468 514.12 75.8548 514.12ZM81.9885 514.12C80.9725 514.12 80.1765 513.84 79.6005 513.28C79.0245 512.72 78.7365 511.952 78.7365 510.976C78.7365 510.344 78.8605 509.792 79.1085 509.32C79.3565 508.848 79.7005 508.48 80.1405 508.216C80.5885 507.952 81.1085 507.82 81.7005 507.82C82.2845 507.82 82.7725 507.944 83.1645 508.192C83.5565 508.44 83.8525 508.788 84.0525 509.236C84.2605 509.684 84.3645 510.208 84.3645 510.808V511.204H79.9485V510.412H83.2965L83.0925 510.58C83.0925 510.02 82.9725 509.592 82.7325 509.296C82.5005 509 82.1605 508.852 81.7125 508.852C81.2165 508.852 80.8325 509.028 80.5605 509.38C80.2965 509.732 80.1645 510.224 80.1645 510.856V511.012C80.1645 511.668 80.3245 512.16 80.6445 512.488C80.9725 512.808 81.4325 512.968 82.0245 512.968C82.3685 512.968 82.6885 512.924 82.9845 512.836C83.2885 512.74 83.5765 512.588 83.8485 512.38L84.2925 513.388C84.0045 513.62 83.6605 513.8 83.2605 513.928C82.8605 514.056 82.4365 514.12 81.9885 514.12ZM85.6827 514V509.488C85.6827 509.232 85.6747 508.972 85.6587 508.708C85.6507 508.444 85.6307 508.188 85.5987 507.94H87.0507L87.2187 509.596H86.9787C87.0587 509.196 87.1907 508.864 87.3747 508.6C87.5667 508.336 87.7987 508.14 88.0707 508.012C88.3427 507.884 88.6387 507.82 88.9587 507.82C89.1027 507.82 89.2188 507.828 89.3068 507.844C89.3948 507.852 89.4828 507.872 89.5708 507.904L89.5588 509.224C89.4068 509.16 89.2748 509.12 89.1628 509.104C89.0588 509.088 88.9267 509.08 88.7667 509.08C88.4227 509.08 88.1308 509.152 87.8908 509.296C87.6588 509.44 87.4828 509.64 87.3628 509.896C87.2507 510.152 87.1947 510.444 87.1947 510.772V514H85.6827ZM93.3975 514.12C92.6775 514.12 92.1335 513.932 91.7655 513.556C91.3975 513.18 91.2135 512.616 91.2135 511.864V509.068H90.0495V507.94H91.2135V506.392L92.7135 506.008V507.94H94.3335V509.068H92.7135V511.768C92.7135 512.184 92.7935 512.476 92.9535 512.644C93.1135 512.812 93.3335 512.896 93.6135 512.896C93.7655 512.896 93.8935 512.884 93.9975 512.86C94.1095 512.836 94.2175 512.804 94.3215 512.764V513.952C94.1855 514.008 94.0335 514.048 93.8655 514.072C93.7055 514.104 93.5495 514.12 93.3975 514.12ZM95.4124 514V507.94H96.9124V514H95.4124ZM95.3284 506.8V505.336H96.9964V506.8H95.3284ZM99.0093 514V509.068H97.8453V507.94H99.4293L99.0093 508.324V507.4C99.0093 506.648 99.1973 506.08 99.5733 505.696C99.9573 505.312 100.513 505.12 101.241 505.12C101.417 505.12 101.601 505.132 101.793 505.156C101.993 505.18 102.165 505.224 102.309 505.288V506.464C102.205 506.424 102.081 506.392 101.937 506.368C101.793 506.344 101.653 506.332 101.517 506.332C101.205 506.332 100.957 506.424 100.773 506.608C100.589 506.784 100.497 507.072 100.497 507.472V508.204L100.281 507.94H104.493V514H102.993V509.068H100.509V514H99.0093ZM102.909 506.8V505.336H104.577V506.8H102.909ZM108.969 514.12C108.345 514.12 107.797 513.992 107.325 513.736C106.861 513.48 106.501 513.116 106.245 512.644C105.989 512.164 105.861 511.596 105.861 510.94C105.861 510.284 105.989 509.724 106.245 509.26C106.509 508.796 106.873 508.44 107.337 508.192C107.801 507.944 108.345 507.82 108.969 507.82C109.369 507.82 109.757 507.884 110.133 508.012C110.517 508.132 110.829 508.308 111.069 508.54L110.613 509.584C110.397 509.384 110.153 509.236 109.881 509.14C109.617 509.036 109.357 508.984 109.101 508.984C108.565 508.984 108.145 509.152 107.841 509.488C107.545 509.824 107.397 510.312 107.397 510.952C107.397 511.592 107.545 512.084 107.841 512.428C108.145 512.772 108.565 512.944 109.101 512.944C109.349 512.944 109.605 512.896 109.869 512.8C110.141 512.704 110.389 512.556 110.613 512.356L111.069 513.388C110.821 513.62 110.505 513.8 110.121 513.928C109.745 514.056 109.361 514.12 108.969 514.12ZM114.596 514.12C114.068 514.12 113.604 513.996 113.204 513.748C112.804 513.492 112.492 513.128 112.268 512.656C112.044 512.184 111.932 511.62 111.932 510.964C111.932 510.308 112.044 509.748 112.268 509.284C112.492 508.812 112.804 508.452 113.204 508.204C113.604 507.948 114.068 507.82 114.596 507.82C115.108 507.82 115.556 507.948 115.94 508.204C116.332 508.452 116.592 508.788 116.72 509.212H116.588L116.72 507.94H118.16C118.136 508.188 118.112 508.44 118.088 508.696C118.072 508.952 118.064 509.204 118.064 509.452V514H116.576L116.564 512.752H116.708C116.58 513.168 116.32 513.5 115.928 513.748C115.536 513.996 115.092 514.12 114.596 514.12ZM115.016 512.968C115.488 512.968 115.868 512.804 116.156 512.476C116.444 512.14 116.588 511.636 116.588 510.964C116.588 510.292 116.444 509.792 116.156 509.464C115.868 509.136 115.488 508.972 115.016 508.972C114.544 508.972 114.164 509.136 113.876 509.464C113.588 509.792 113.444 510.292 113.444 510.964C113.444 511.636 113.584 512.14 113.864 512.476C114.152 512.804 114.536 512.968 115.016 512.968ZM122.35 514.12C121.63 514.12 121.086 513.932 120.718 513.556C120.35 513.18 120.166 512.616 120.166 511.864V509.068H119.002V507.94H120.166V506.392L121.666 506.008V507.94H123.286V509.068H121.666V511.768C121.666 512.184 121.746 512.476 121.906 512.644C122.066 512.812 122.286 512.896 122.566 512.896C122.718 512.896 122.846 512.884 122.95 512.86C123.062 512.836 123.17 512.804 123.274 512.764V513.952C123.138 514.008 122.986 514.048 122.818 514.072C122.658 514.104 122.502 514.12 122.35 514.12ZM127.234 514.12C126.218 514.12 125.422 513.84 124.846 513.28C124.27 512.72 123.982 511.952 123.982 510.976C123.982 510.344 124.106 509.792 124.354 509.32C124.602 508.848 124.946 508.48 125.386 508.216C125.834 507.952 126.354 507.82 126.946 507.82C127.53 507.82 128.018 507.944 128.41 508.192C128.802 508.44 129.098 508.788 129.298 509.236C129.506 509.684 129.61 510.208 129.61 510.808V511.204H125.194V510.412H128.542L128.338 510.58C128.338 510.02 128.218 509.592 127.978 509.296C127.746 509 127.406 508.852 126.958 508.852C126.462 508.852 126.078 509.028 125.806 509.38C125.542 509.732 125.41 510.224 125.41 510.856V511.012C125.41 511.668 125.57 512.16 125.89 512.488C126.218 512.808 126.678 512.968 127.27 512.968C127.614 512.968 127.934 512.924 128.23 512.836C128.534 512.74 128.822 512.588 129.094 512.38L129.538 513.388C129.25 513.62 128.906 513.8 128.506 513.928C128.106 514.056 127.682 514.12 127.234 514.12ZM135.973 514L133.609 507.94H135.157L136.861 512.656H136.549L138.277 507.94H139.345L141.061 512.656H140.785L142.477 507.94H143.941L141.577 514H140.257L138.445 509.176H139.081L137.305 514H135.973ZM147.566 514.12C146.942 514.12 146.402 513.992 145.946 513.736C145.49 513.48 145.134 513.116 144.878 512.644C144.63 512.172 144.506 511.612 144.506 510.964C144.506 510.316 144.63 509.76 144.878 509.296C145.134 508.824 145.49 508.46 145.946 508.204C146.402 507.948 146.942 507.82 147.566 507.82C148.19 507.82 148.73 507.948 149.186 508.204C149.65 508.46 150.006 508.824 150.254 509.296C150.51 509.76 150.638 510.316 150.638 510.964C150.638 511.612 150.51 512.172 150.254 512.644C150.006 513.116 149.65 513.48 149.186 513.736C148.73 513.992 148.19 514.12 147.566 514.12ZM147.566 512.968C148.038 512.968 148.414 512.804 148.694 512.476C148.974 512.14 149.114 511.636 149.114 510.964C149.114 510.292 148.974 509.792 148.694 509.464C148.414 509.136 148.038 508.972 147.566 508.972C147.094 508.972 146.718 509.136 146.438 509.464C146.158 509.792 146.018 510.292 146.018 510.964C146.018 511.636 146.158 512.14 146.438 512.476C146.718 512.804 147.094 512.968 147.566 512.968ZM154.175 514.12C153.431 514.12 152.875 513.916 152.507 513.508C152.139 513.1 151.955 512.476 151.955 511.636V507.94H153.455V511.624C153.455 512.072 153.547 512.404 153.731 512.62C153.915 512.828 154.195 512.932 154.571 512.932C154.995 512.932 155.339 512.788 155.603 512.5C155.875 512.212 156.011 511.832 156.011 511.36V507.94H157.511V514H156.047V512.764H156.215C156.039 513.196 155.771 513.532 155.411 513.772C155.059 514.004 154.647 514.12 154.175 514.12ZM159.2 514V505.168H160.7V514H159.2ZM164.741 514.12C164.213 514.12 163.745 513.996 163.337 513.748C162.937 513.492 162.625 513.128 162.401 512.656C162.177 512.184 162.065 511.62 162.065 510.964C162.065 510.308 162.177 509.748 162.401 509.284C162.625 508.812 162.937 508.452 163.337 508.204C163.745 507.948 164.213 507.82 164.741 507.82C165.245 507.82 165.689 507.944 166.073 508.192C166.465 508.432 166.725 508.76 166.853 509.176H166.697V505.168H168.197V514H166.721V512.716H166.865C166.737 513.148 166.477 513.492 166.085 513.748C165.701 513.996 165.253 514.12 164.741 514.12ZM165.161 512.968C165.633 512.968 166.013 512.804 166.301 512.476C166.589 512.14 166.733 511.636 166.733 510.964C166.733 510.292 166.589 509.792 166.301 509.464C166.013 509.136 165.633 508.972 165.161 508.972C164.689 508.972 164.305 509.136 164.009 509.464C163.721 509.792 163.577 510.292 163.577 510.964C163.577 511.636 163.721 512.14 164.009 512.476C164.305 512.804 164.689 512.968 165.161 512.968ZM173.243 514V505.168H174.743V514H173.243ZM179.168 514.12C178.544 514.12 178.004 513.992 177.548 513.736C177.092 513.48 176.736 513.116 176.48 512.644C176.232 512.172 176.108 511.612 176.108 510.964C176.108 510.316 176.232 509.76 176.48 509.296C176.736 508.824 177.092 508.46 177.548 508.204C178.004 507.948 178.544 507.82 179.168 507.82C179.792 507.82 180.332 507.948 180.788 508.204C181.252 508.46 181.608 508.824 181.856 509.296C182.112 509.76 182.24 510.316 182.24 510.964C182.24 511.612 182.112 512.172 181.856 512.644C181.608 513.116 181.252 513.48 180.788 513.736C180.332 513.992 179.792 514.12 179.168 514.12ZM179.168 512.968C179.64 512.968 180.016 512.804 180.296 512.476C180.576 512.14 180.716 511.636 180.716 510.964C180.716 510.292 180.576 509.792 180.296 509.464C180.016 509.136 179.64 508.972 179.168 508.972C178.696 508.972 178.32 509.136 178.04 509.464C177.76 509.792 177.62 510.292 177.62 510.964C177.62 511.636 177.76 512.14 178.04 512.476C178.32 512.804 178.696 512.968 179.168 512.968ZM186.33 514.12C185.706 514.12 185.166 513.992 184.71 513.736C184.254 513.48 183.898 513.116 183.642 512.644C183.394 512.172 183.27 511.612 183.27 510.964C183.27 510.316 183.394 509.76 183.642 509.296C183.898 508.824 184.254 508.46 184.71 508.204C185.166 507.948 185.706 507.82 186.33 507.82C186.954 507.82 187.494 507.948 187.95 508.204C188.414 508.46 188.77 508.824 189.018 509.296C189.274 509.76 189.402 510.316 189.402 510.964C189.402 511.612 189.274 512.172 189.018 512.644C188.77 513.116 188.414 513.48 187.95 513.736C187.494 513.992 186.954 514.12 186.33 514.12ZM186.33 512.968C186.802 512.968 187.178 512.804 187.458 512.476C187.738 512.14 187.878 511.636 187.878 510.964C187.878 510.292 187.738 509.792 187.458 509.464C187.178 509.136 186.802 508.972 186.33 508.972C185.858 508.972 185.482 509.136 185.202 509.464C184.922 509.792 184.782 510.292 184.782 510.964C184.782 511.636 184.922 512.14 185.202 512.476C185.482 512.804 185.858 512.968 186.33 512.968ZM190.755 514V505.168H192.255V510.52H192.279L194.739 507.94H196.551L193.491 511.144L193.503 510.544L196.767 514H194.907L192.279 511.288H192.255V514H190.755ZM200.789 514V505.168H202.289V514H200.789ZM203.978 514V507.94H205.478V514H203.978ZM203.894 506.8V505.336H205.562V506.8H203.894ZM207.167 514V505.168H208.667V510.52H208.691L211.151 507.94H212.963L209.903 511.144L209.915 510.544L213.179 514H211.319L208.691 511.288H208.667V514H207.167ZM216.659 514.12C215.643 514.12 214.847 513.84 214.271 513.28C213.695 512.72 213.407 511.952 213.407 510.976C213.407 510.344 213.531 509.792 213.779 509.32C214.027 508.848 214.371 508.48 214.811 508.216C215.259 507.952 215.779 507.82 216.371 507.82C216.955 507.82 217.443 507.944 217.835 508.192C218.227 508.44 218.523 508.788 218.723 509.236C218.931 509.684 219.035 510.208 219.035 510.808V511.204H214.619V510.412H217.967L217.763 510.58C217.763 510.02 217.643 509.592 217.403 509.296C217.171 509 216.831 508.852 216.383 508.852C215.887 508.852 215.503 509.028 215.231 509.38C214.967 509.732 214.835 510.224 214.835 510.856V511.012C214.835 511.668 214.995 512.16 215.315 512.488C215.643 512.808 216.103 512.968 216.695 512.968C217.039 512.968 217.359 512.924 217.655 512.836C217.959 512.74 218.247 512.588 218.519 512.38L218.963 513.388C218.675 513.62 218.331 513.8 217.931 513.928C217.531 514.056 217.107 514.12 216.659 514.12Z" fill="#9A9AB0"/>
<rect x="23" y="79" width="371" height="60" rx="10" fill="#E2E2F0"/>
<circle cx="53" cy="109" r="13.5" fill="#F7F7FC" stroke="#5541D7"/>
<path d="M50.7343 113V111.716H52.6783V105.836H53.4223L50.9263 107.324V105.86L53.1223 104.54H54.2263V111.716H56.0503V113H50.7343Z" fill="#5541D7"/>
<path d="M82.328 116V104.72H86.232C87.5013 104.72 88.5733 104.939 89.448 105.376C90.3333 105.813 91 106.453 91.448 107.296C91.9067 108.128 92.136 109.147 92.136 110.352C92.136 111.547 91.9067 112.565 91.448 113.408C91 114.251 90.3333 114.896 89.448 115.344C88.5733 115.781 87.5013 116 86.232 116H82.328ZM83.992 114.608H86.136C87.5867 114.608 88.664 114.256 89.368 113.552C90.0827 112.848 90.44 111.781 90.44 110.352C90.44 108.923 90.0827 107.861 89.368 107.168C88.664 106.464 87.5867 106.112 86.136 106.112H83.992V114.608ZM98.0545 116.144C96.7532 116.144 95.7292 115.776 94.9825 115.04C94.2358 114.304 93.8625 113.285 93.8625 111.984C93.8625 111.141 94.0225 110.405 94.3425 109.776C94.6732 109.147 95.1265 108.661 95.7025 108.32C96.2892 107.968 96.9665 107.792 97.7345 107.792C98.4918 107.792 99.1265 107.952 99.6385 108.272C100.151 108.592 100.54 109.045 100.807 109.632C101.073 110.208 101.207 110.891 101.207 111.68V112.192H95.1265V111.264H100.103L99.8305 111.472C99.8305 110.672 99.6492 110.053 99.2865 109.616C98.9345 109.168 98.4225 108.944 97.7505 108.944C97.0038 108.944 96.4278 109.205 96.0225 109.728C95.6172 110.24 95.4145 110.949 95.4145 111.856V112.016C95.4145 112.965 95.6438 113.68 96.1025 114.16C96.5718 114.64 97.2332 114.88 98.0865 114.88C98.5558 114.88 98.9932 114.816 99.3985 114.688C99.8145 114.549 100.209 114.325 100.583 114.016L101.111 115.12C100.737 115.451 100.284 115.707 99.7505 115.888C99.2172 116.059 98.6518 116.144 98.0545 116.144ZM106.229 116.144C105.514 116.144 104.89 115.979 104.357 115.648C103.824 115.317 103.408 114.837 103.109 114.208C102.821 113.579 102.677 112.832 102.677 111.968C102.677 111.093 102.821 110.347 103.109 109.728C103.408 109.109 103.824 108.635 104.357 108.304C104.89 107.963 105.514 107.792 106.229 107.792C106.933 107.792 107.546 107.968 108.069 108.32C108.592 108.672 108.938 109.152 109.109 109.76H108.933L109.093 107.936H110.661C110.629 108.267 110.597 108.597 110.565 108.928C110.544 109.248 110.533 109.563 110.533 109.872V116H108.917V114.208H109.093C108.922 114.805 108.57 115.28 108.037 115.632C107.514 115.973 106.912 116.144 106.229 116.144ZM106.629 114.88C107.322 114.88 107.877 114.635 108.293 114.144C108.72 113.653 108.933 112.928 108.933 111.968C108.933 111.008 108.72 110.288 108.293 109.808C107.877 109.317 107.322 109.072 106.629 109.072C105.925 109.072 105.36 109.317 104.933 109.808C104.517 110.288 104.309 111.008 104.309 111.968C104.309 112.928 104.517 113.653 104.933 114.144C105.349 114.635 105.914 114.88 106.629 114.88ZM112.939 116V109.936C112.939 109.605 112.928 109.275 112.907 108.944C112.896 108.603 112.875 108.267 112.843 107.936H114.411L114.587 110.016H114.331C114.438 109.515 114.619 109.099 114.875 108.768C115.131 108.437 115.44 108.192 115.803 108.032C116.176 107.872 116.566 107.792 116.971 107.792C117.142 107.792 117.286 107.803 117.403 107.824C117.52 107.835 117.638 107.856 117.755 107.888L117.739 109.328C117.558 109.253 117.398 109.211 117.259 109.2C117.131 109.179 116.971 109.168 116.779 109.168C116.31 109.168 115.91 109.275 115.579 109.488C115.248 109.691 114.998 109.968 114.827 110.32C114.656 110.672 114.571 111.051 114.571 111.456V116H112.939ZM119.314 117.968L118.61 117.424C118.92 117.093 119.128 116.789 119.234 116.512C119.352 116.235 119.41 115.947 119.41 115.648L119.762 116H118.498V114.096H120.402V115.392C120.402 115.872 120.322 116.315 120.162 116.72C120.002 117.136 119.72 117.552 119.314 117.968Z" fill="#5541D7"/>
<rect x="23" y="169" width="371" height="60" rx="10" fill="#E2E2F0"/>
<circle cx="53" cy="200" r="13.5" fill="#F7F7FC" stroke="#5541D7"/>
<path d="M50.3383 204V202.86L53.1463 199.932C53.4983 199.564 53.7583 199.224 53.9263 198.912C54.0943 198.6 54.1783 198.28 54.1783 197.952C54.1783 197.544 54.0503 197.236 53.7943 197.028C53.5383 196.82 53.1663 196.716 52.6783 196.716C52.2863 196.716 51.9103 196.788 51.5503 196.932C51.1903 197.068 50.8383 197.284 50.4943 197.58L49.9903 196.428C50.3343 196.124 50.7583 195.88 51.2623 195.696C51.7743 195.512 52.3103 195.42 52.8703 195.42C53.7823 195.42 54.4823 195.624 54.9703 196.032C55.4583 196.44 55.7023 197.024 55.7023 197.784C55.7023 198.312 55.5783 198.816 55.3303 199.296C55.0823 199.768 54.6983 200.264 54.1783 200.784L51.8383 203.124V202.716H56.0383V204H50.3383Z" fill="#5541D7"/>
<path d="M82.328 206V194.72H83.608L90.536 203.808H90.136V194.72H91.688V206H90.424L83.512 196.912H83.88V206H82.328ZM97.72 206.144C96.92 206.144 96.2267 205.979 95.64 205.648C95.0533 205.307 94.6 204.827 94.28 204.208C93.96 203.579 93.8 202.832 93.8 201.968C93.8 201.104 93.96 200.363 94.28 199.744C94.6 199.115 95.0533 198.635 95.64 198.304C96.2267 197.963 96.92 197.792 97.72 197.792C98.52 197.792 99.2133 197.963 99.8 198.304C100.397 198.635 100.856 199.115 101.176 199.744C101.507 200.363 101.672 201.104 101.672 201.968C101.672 202.832 101.507 203.579 101.176 204.208C100.856 204.827 100.397 205.307 99.8 205.648C99.2133 205.979 98.52 206.144 97.72 206.144ZM97.72 204.88C98.424 204.88 98.984 204.635 99.4 204.144C99.816 203.653 100.024 202.928 100.024 201.968C100.024 201.008 99.816 200.288 99.4 199.808C98.984 199.317 98.424 199.072 97.72 199.072C97.0267 199.072 96.472 199.317 96.056 199.808C95.64 200.288 95.432 201.008 95.432 201.968C95.432 202.928 95.6347 203.653 96.04 204.144C96.456 204.635 97.016 204.88 97.72 204.88ZM103.641 206V199.872C103.641 199.563 103.625 199.248 103.593 198.928C103.572 198.597 103.545 198.267 103.513 197.936H105.081L105.225 199.632H105.033C105.257 199.045 105.598 198.592 106.057 198.272C106.526 197.952 107.086 197.792 107.737 197.792C108.398 197.792 108.937 197.952 109.353 198.272C109.78 198.581 110.073 199.061 110.233 199.712H109.977C110.19 199.125 110.553 198.661 111.065 198.32C111.577 197.968 112.169 197.792 112.841 197.792C113.737 197.792 114.409 198.053 114.857 198.576C115.305 199.099 115.529 199.909 115.529 201.008V206H113.913V201.088C113.913 200.384 113.79 199.877 113.545 199.568C113.31 199.248 112.926 199.088 112.393 199.088C111.774 199.088 111.284 199.301 110.921 199.728C110.558 200.155 110.377 200.731 110.377 201.456V206H108.761V201.088C108.761 200.384 108.638 199.877 108.393 199.568C108.158 199.248 107.774 199.088 107.241 199.088C106.622 199.088 106.137 199.301 105.785 199.728C105.433 200.155 105.257 200.731 105.257 201.456V206H103.641ZM117.924 206V197.936H119.54V206H117.924ZM117.796 196.256V194.576H119.668V196.256H117.796ZM121.988 206V199.872C121.988 199.563 121.972 199.248 121.94 198.928C121.919 198.597 121.892 198.267 121.86 197.936H123.428L123.572 199.632H123.38C123.626 199.035 124.004 198.581 124.516 198.272C125.028 197.952 125.62 197.792 126.292 197.792C127.242 197.792 127.956 198.053 128.436 198.576C128.927 199.099 129.172 199.909 129.172 201.008V206H127.556V201.104C127.556 200.389 127.412 199.877 127.124 199.568C126.847 199.248 126.42 199.088 125.844 199.088C125.162 199.088 124.618 199.301 124.212 199.728C123.807 200.144 123.604 200.709 123.604 201.424V206H121.988ZM134.641 206.144C133.926 206.144 133.302 205.979 132.769 205.648C132.235 205.317 131.819 204.837 131.521 204.208C131.233 203.579 131.089 202.832 131.089 201.968C131.089 201.093 131.233 200.347 131.521 199.728C131.819 199.109 132.235 198.635 132.769 198.304C133.302 197.963 133.926 197.792 134.641 197.792C135.345 197.792 135.958 197.968 136.481 198.32C137.003 198.672 137.35 199.152 137.521 199.76H137.345L137.505 197.936H139.073C139.041 198.267 139.009 198.597 138.977 198.928C138.955 199.248 138.945 199.563 138.945 199.872V206H137.329V204.208H137.505C137.334 204.805 136.982 205.28 136.449 205.632C135.926 205.973 135.323 206.144 134.641 206.144ZM135.041 204.88C135.734 204.88 136.289 204.635 136.705 204.144C137.131 203.653 137.345 202.928 137.345 201.968C137.345 201.008 137.131 200.288 136.705 199.808C136.289 199.317 135.734 199.072 135.041 199.072C134.337 199.072 133.771 199.317 133.345 199.808C132.929 200.288 132.721 201.008 132.721 201.968C132.721 202.928 132.929 203.653 133.345 204.144C133.761 204.635 134.326 204.88 135.041 204.88ZM141.383 206V194.224H142.999V206H141.383ZM153.249 206.144C152.449 206.144 151.755 205.979 151.169 205.648C150.582 205.307 150.129 204.827 149.809 204.208C149.489 203.579 149.329 202.832 149.329 201.968C149.329 201.104 149.489 200.363 149.809 199.744C150.129 199.115 150.582 198.635 151.169 198.304C151.755 197.963 152.449 197.792 153.249 197.792C154.049 197.792 154.742 197.963 155.329 198.304C155.926 198.635 156.385 199.115 156.705 199.744C157.035 200.363 157.201 201.104 157.201 201.968C157.201 202.832 157.035 203.579 156.705 204.208C156.385 204.827 155.926 205.307 155.329 205.648C154.742 205.979 154.049 206.144 153.249 206.144ZM153.249 204.88C153.953 204.88 154.513 204.635 154.929 204.144C155.345 203.653 155.553 202.928 155.553 201.968C155.553 201.008 155.345 200.288 154.929 199.808C154.513 199.317 153.953 199.072 153.249 199.072C152.555 199.072 152.001 199.317 151.585 199.808C151.169 200.288 150.961 201.008 150.961 201.968C150.961 202.928 151.163 203.653 151.569 204.144C151.985 204.635 152.545 204.88 153.249 204.88ZM159.572 206V199.184H158.004V197.936H160.02L159.572 198.352V197.072C159.572 196.123 159.812 195.403 160.292 194.912C160.772 194.411 161.476 194.16 162.404 194.16C162.628 194.16 162.862 194.176 163.108 194.208C163.353 194.24 163.556 194.293 163.716 194.368V195.68C163.588 195.627 163.428 195.584 163.236 195.552C163.054 195.509 162.868 195.488 162.676 195.488C162.366 195.488 162.1 195.552 161.876 195.68C161.652 195.797 161.476 195.979 161.348 196.224C161.23 196.469 161.172 196.784 161.172 197.168V198.256L160.932 197.936H163.364V199.184H161.188V206H159.572ZM172.278 206.144C171.403 206.144 170.742 205.909 170.294 205.44C169.846 204.96 169.622 204.245 169.622 203.296V199.184H168.054V197.936H169.622V195.808L171.238 195.376V197.936H173.478V199.184H171.238V203.152C171.238 203.749 171.345 204.176 171.558 204.432C171.771 204.688 172.081 204.816 172.486 204.816C172.689 204.816 172.865 204.8 173.014 204.768C173.174 204.725 173.318 204.677 173.446 204.624V205.936C173.286 206 173.099 206.048 172.886 206.08C172.673 206.123 172.47 206.144 172.278 206.144ZM175.035 206V194.224H176.651V199.648H176.427C176.661 199.04 177.04 198.581 177.563 198.272C178.085 197.952 178.688 197.792 179.371 197.792C180.331 197.792 181.045 198.059 181.515 198.592C181.984 199.115 182.219 199.909 182.219 200.976V206H180.603V201.072C180.603 200.379 180.464 199.877 180.187 199.568C179.92 199.248 179.493 199.088 178.907 199.088C178.224 199.088 177.675 199.301 177.259 199.728C176.853 200.144 176.651 200.699 176.651 201.392V206H175.035ZM188.327 206.144C187.026 206.144 186.002 205.776 185.255 205.04C184.508 204.304 184.135 203.285 184.135 201.984C184.135 201.141 184.295 200.405 184.615 199.776C184.946 199.147 185.399 198.661 185.975 198.32C186.562 197.968 187.239 197.792 188.007 197.792C188.764 197.792 189.399 197.952 189.911 198.272C190.423 198.592 190.812 199.045 191.079 199.632C191.346 200.208 191.479 200.891 191.479 201.68V202.192H185.399V201.264H190.375L190.103 201.472C190.103 200.672 189.922 200.053 189.559 199.616C189.207 199.168 188.695 198.944 188.023 198.944C187.276 198.944 186.7 199.205 186.295 199.728C185.89 200.24 185.687 200.949 185.687 201.856V202.016C185.687 202.965 185.916 203.68 186.375 204.16C186.844 204.64 187.506 204.88 188.359 204.88C188.828 204.88 189.266 204.816 189.671 204.688C190.087 204.549 190.482 204.325 190.855 204.016L191.383 205.12C191.01 205.451 190.556 205.707 190.023 205.888C189.49 206.059 188.924 206.144 188.327 206.144ZM201.295 206.144C200.484 206.144 199.775 205.979 199.167 205.648C198.57 205.307 198.106 204.821 197.775 204.192C197.455 203.552 197.295 202.795 197.295 201.92C197.295 201.056 197.46 200.315 197.791 199.696C198.122 199.077 198.586 198.608 199.183 198.288C199.78 197.957 200.484 197.792 201.295 197.792C201.818 197.792 202.324 197.883 202.815 198.064C203.306 198.235 203.711 198.48 204.031 198.8L203.503 199.936C203.204 199.648 202.868 199.435 202.495 199.296C202.122 199.147 201.759 199.072 201.407 199.072C200.639 199.072 200.036 199.317 199.599 199.808C199.162 200.299 198.943 201.008 198.943 201.936C198.943 202.875 199.162 203.595 199.599 204.096C200.036 204.597 200.639 204.848 201.407 204.848C201.748 204.848 202.106 204.784 202.479 204.656C202.852 204.517 203.194 204.299 203.503 204L204.031 205.136C203.7 205.456 203.284 205.707 202.783 205.888C202.292 206.059 201.796 206.144 201.295 206.144ZM209.395 206.144C208.094 206.144 207.07 205.776 206.323 205.04C205.576 204.304 205.203 203.285 205.203 201.984C205.203 201.141 205.363 200.405 205.683 199.776C206.014 199.147 206.467 198.661 207.043 198.32C207.63 197.968 208.307 197.792 209.075 197.792C209.832 197.792 210.467 197.952 210.979 198.272C211.491 198.592 211.88 199.045 212.147 199.632C212.414 200.208 212.547 200.891 212.547 201.68V202.192H206.467V201.264H211.443L211.171 201.472C211.171 200.672 210.99 200.053 210.627 199.616C210.275 199.168 209.763 198.944 209.091 198.944C208.344 198.944 207.768 199.205 207.363 199.728C206.958 200.24 206.755 200.949 206.755 201.856V202.016C206.755 202.965 206.984 203.68 207.443 204.16C207.912 204.64 208.574 204.88 209.427 204.88C209.896 204.88 210.334 204.816 210.739 204.688C211.155 204.549 211.55 204.325 211.923 204.016L212.451 205.12C212.078 205.451 211.624 205.707 211.091 205.888C210.558 206.059 209.992 206.144 209.395 206.144ZM214.45 206V199.936C214.45 199.605 214.439 199.275 214.418 198.944C214.407 198.603 214.386 198.267 214.354 197.936H215.922L216.098 200.016H215.842C215.948 199.515 216.13 199.099 216.386 198.768C216.642 198.437 216.951 198.192 217.314 198.032C217.687 197.872 218.076 197.792 218.482 197.792C218.652 197.792 218.796 197.803 218.914 197.824C219.031 197.835 219.148 197.856 219.266 197.888L219.25 199.328C219.068 199.253 218.908 199.211 218.77 199.2C218.642 199.179 218.482 199.168 218.29 199.168C217.82 199.168 217.42 199.275 217.09 199.488C216.759 199.691 216.508 199.968 216.338 200.32C216.167 200.672 216.082 201.051 216.082 201.456V206H214.45ZM224.166 206.144C223.292 206.144 222.63 205.909 222.182 205.44C221.734 204.96 221.51 204.245 221.51 203.296V199.184H219.942V197.936H221.51V195.808L223.126 195.376V197.936H225.366V199.184H223.126V203.152C223.126 203.749 223.233 204.176 223.446 204.432C223.66 204.688 223.969 204.816 224.374 204.816C224.577 204.816 224.753 204.8 224.902 204.768C225.062 204.725 225.206 204.677 225.334 204.624V205.936C225.174 206 224.988 206.048 224.774 206.08C224.561 206.123 224.358 206.144 224.166 206.144ZM226.923 206V197.936H228.539V206H226.923ZM226.795 196.256V194.576H228.667V196.256H226.795ZM231.467 206V199.184H229.899V197.936H231.915L231.467 198.352V197.072C231.467 196.123 231.702 195.403 232.171 194.912C232.651 194.411 233.344 194.16 234.251 194.16C234.464 194.16 234.694 194.176 234.939 194.208C235.184 194.24 235.392 194.293 235.563 194.368V195.68C235.435 195.627 235.275 195.584 235.083 195.552C234.891 195.509 234.704 195.488 234.523 195.488C234.054 195.488 233.691 195.627 233.435 195.904C233.19 196.171 233.067 196.592 233.067 197.168V198.256L232.827 197.936H238.187V206H236.571V199.184H233.083V206H231.467ZM236.443 196.256V194.576H238.315V196.256H236.443ZM244.166 206.144C243.355 206.144 242.646 205.979 242.038 205.648C241.44 205.307 240.976 204.821 240.646 204.192C240.326 203.552 240.166 202.795 240.166 201.92C240.166 201.056 240.331 200.315 240.662 199.696C240.992 199.077 241.456 198.608 242.054 198.288C242.651 197.957 243.355 197.792 244.166 197.792C244.688 197.792 245.195 197.883 245.686 198.064C246.176 198.235 246.582 198.48 246.902 198.8L246.374 199.936C246.075 199.648 245.739 199.435 245.366 199.296C244.992 199.147 244.63 199.072 244.278 199.072C243.51 199.072 242.907 199.317 242.47 199.808C242.032 200.299 241.814 201.008 241.814 201.936C241.814 202.875 242.032 203.595 242.47 204.096C242.907 204.597 243.51 204.848 244.278 204.848C244.619 204.848 244.976 204.784 245.35 204.656C245.723 204.517 246.064 204.299 246.374 204L246.902 205.136C246.571 205.456 246.155 205.707 245.654 205.888C245.163 206.059 244.667 206.144 244.166 206.144ZM251.719 206.144C251.005 206.144 250.381 205.979 249.847 205.648C249.314 205.317 248.898 204.837 248.599 204.208C248.311 203.579 248.167 202.832 248.167 201.968C248.167 201.093 248.311 200.347 248.599 199.728C248.898 199.109 249.314 198.635 249.847 198.304C250.381 197.963 251.005 197.792 251.719 197.792C252.423 197.792 253.037 197.968 253.559 198.32C254.082 198.672 254.429 199.152 254.599 199.76H254.423L254.583 197.936H256.151C256.119 198.267 256.087 198.597 256.055 198.928C256.034 199.248 256.023 199.563 256.023 199.872V206H254.407V204.208H254.583C254.413 204.805 254.061 205.28 253.527 205.632C253.005 205.973 252.402 206.144 251.719 206.144ZM252.119 204.88C252.813 204.88 253.367 204.635 253.783 204.144C254.21 203.653 254.423 202.928 254.423 201.968C254.423 201.008 254.21 200.288 253.783 199.808C253.367 199.317 252.813 199.072 252.119 199.072C251.415 199.072 250.85 199.317 250.423 199.808C250.007 200.288 249.799 201.008 249.799 201.968C249.799 202.928 250.007 203.653 250.423 204.144C250.839 204.635 251.405 204.88 252.119 204.88ZM261.597 206.144C260.723 206.144 260.061 205.909 259.613 205.44C259.165 204.96 258.941 204.245 258.941 203.296V199.184H257.373V197.936H258.941V195.808L260.557 195.376V197.936H262.797V199.184H260.557V203.152C260.557 203.749 260.664 204.176 260.877 204.432C261.091 204.688 261.4 204.816 261.805 204.816C262.008 204.816 262.184 204.8 262.333 204.768C262.493 204.725 262.637 204.677 262.765 204.624V205.936C262.605 206 262.419 206.048 262.205 206.08C261.992 206.123 261.789 206.144 261.597 206.144ZM268.004 206.144C266.703 206.144 265.679 205.776 264.932 205.04C264.185 204.304 263.812 203.285 263.812 201.984C263.812 201.141 263.972 200.405 264.292 199.776C264.623 199.147 265.076 198.661 265.652 198.32C266.239 197.968 266.916 197.792 267.684 197.792C268.441 197.792 269.076 197.952 269.588 198.272C270.1 198.592 270.489 199.045 270.756 199.632C271.023 200.208 271.156 200.891 271.156 201.68V202.192H265.076V201.264H270.052L269.78 201.472C269.78 200.672 269.599 200.053 269.236 199.616C268.884 199.168 268.372 198.944 267.7 198.944C266.953 198.944 266.377 199.205 265.972 199.728C265.567 200.24 265.364 200.949 265.364 201.856V202.016C265.364 202.965 265.593 203.68 266.052 204.16C266.521 204.64 267.183 204.88 268.036 204.88C268.505 204.88 268.943 204.816 269.348 204.688C269.764 204.549 270.159 204.325 270.532 204.016L271.06 205.12C270.687 205.451 270.233 205.707 269.7 205.888C269.167 206.059 268.601 206.144 268.004 206.144ZM277.1 200.4V199.216H285.004V200.4H277.1ZM277.1 203.584V202.416H285.004V203.584H277.1Z" fill="#5541D7"/>
<rect x="23" y="259" width="371" height="213" rx="10" fill="#E2E2F0"/>
<circle cx="53" cy="292" r="13.5" fill="#F7F7FC" stroke="#5541D7"/>
<path d="M52.8703 296.12C52.2863 296.12 51.7263 296.036 51.1903 295.868C50.6543 295.692 50.2143 295.452 49.8703 295.148L50.3743 293.984C50.7503 294.272 51.1383 294.484 51.5383 294.62C51.9463 294.756 52.3743 294.824 52.8223 294.824C53.3663 294.824 53.7783 294.716 54.0583 294.5C54.3383 294.284 54.4783 293.968 54.4783 293.552C54.4783 293.152 54.3383 292.852 54.0583 292.652C53.7863 292.444 53.3863 292.34 52.8583 292.34H51.4903V291.104H52.7263C53.1823 291.104 53.5463 290.992 53.8183 290.768C54.0903 290.544 54.2263 290.236 54.2263 289.844C54.2263 289.476 54.0983 289.196 53.8423 289.004C53.5943 288.812 53.2343 288.716 52.7623 288.716C51.9143 288.716 51.1663 289.004 50.5183 289.58L50.0143 288.428C50.3583 288.108 50.7823 287.86 51.2863 287.684C51.7983 287.508 52.3343 287.42 52.8943 287.42C53.7743 287.42 54.4623 287.62 54.9583 288.02C55.4623 288.412 55.7143 288.96 55.7143 289.664C55.7143 290.168 55.5703 290.604 55.2823 290.972C55.0023 291.332 54.6143 291.572 54.1183 291.692V291.548C54.7023 291.644 55.1543 291.884 55.4743 292.268C55.8023 292.644 55.9663 293.116 55.9663 293.684C55.9663 294.436 55.6903 295.032 55.1383 295.472C54.5863 295.904 53.8303 296.12 52.8703 296.12Z" fill="#5541D7"/>
<path d="M87.64 298.144C86.392 298.144 85.3413 297.915 84.488 297.456C83.6453 296.987 83.0107 296.32 82.584 295.456C82.1573 294.592 81.944 293.563 81.944 292.368C81.944 291.173 82.168 290.144 82.616 289.28C83.0747 288.416 83.7253 287.749 84.568 287.28C85.4213 286.811 86.4453 286.576 87.64 286.576C88.4613 286.576 89.176 286.693 89.784 286.928C90.392 287.152 90.936 287.483 91.416 287.92L90.824 289.216C90.4827 288.928 90.152 288.699 89.832 288.528C89.512 288.357 89.1813 288.235 88.84 288.16C88.4987 288.075 88.0987 288.032 87.64 288.032C86.3493 288.032 85.368 288.411 84.696 289.168C84.024 289.925 83.688 290.997 83.688 292.384C83.688 293.792 84.008 294.864 84.648 295.6C85.2987 296.336 86.3173 296.704 87.704 296.704C88.184 296.704 88.6587 296.661 89.128 296.576C89.5973 296.48 90.0507 296.341 90.488 296.16L90.168 296.944V293.248H87.384V292H91.56V297.328C91.0693 297.573 90.4667 297.771 89.752 297.92C89.048 298.069 88.344 298.144 87.64 298.144ZM93.9976 298V291.936C93.9976 291.605 93.987 291.275 93.9656 290.944C93.955 290.603 93.9336 290.267 93.9016 289.936H95.4696L95.6456 292.016H95.3896C95.4963 291.515 95.6776 291.099 95.9336 290.768C96.1896 290.437 96.499 290.192 96.8616 290.032C97.235 289.872 97.6243 289.792 98.0296 289.792C98.2003 289.792 98.3443 289.803 98.4616 289.824C98.579 289.835 98.6963 289.856 98.8136 289.888L98.7976 291.328C98.6163 291.253 98.4563 291.211 98.3176 291.2C98.1896 291.179 98.0296 291.168 97.8376 291.168C97.3683 291.168 96.9683 291.275 96.6376 291.488C96.307 291.691 96.0563 291.968 95.8856 292.32C95.715 292.672 95.6296 293.051 95.6296 293.456V298H93.9976ZM103.76 298.144C102.458 298.144 101.434 297.776 100.687 297.04C99.9408 296.304 99.5675 295.285 99.5675 293.984C99.5675 293.141 99.7275 292.405 100.047 291.776C100.378 291.147 100.831 290.661 101.408 290.32C101.994 289.968 102.671 289.792 103.439 289.792C104.197 289.792 104.832 289.952 105.344 290.272C105.856 290.592 106.245 291.045 106.512 291.632C106.778 292.208 106.911 292.891 106.911 293.68V294.192H100.831V293.264H105.808L105.536 293.472C105.536 292.672 105.354 292.053 104.991 291.616C104.639 291.168 104.128 290.944 103.456 290.944C102.709 290.944 102.133 291.205 101.727 291.728C101.322 292.24 101.119 292.949 101.119 293.856V294.016C101.119 294.965 101.349 295.68 101.807 296.16C102.277 296.64 102.938 296.88 103.792 296.88C104.261 296.88 104.698 296.816 105.104 296.688C105.52 296.549 105.914 296.325 106.288 296.016L106.816 297.12C106.442 297.451 105.989 297.707 105.456 297.888C104.922 298.059 104.357 298.144 103.76 298.144ZM112.574 298.144C111.273 298.144 110.249 297.776 109.502 297.04C108.755 296.304 108.382 295.285 108.382 293.984C108.382 293.141 108.542 292.405 108.862 291.776C109.193 291.147 109.646 290.661 110.222 290.32C110.809 289.968 111.486 289.792 112.254 289.792C113.011 289.792 113.646 289.952 114.158 290.272C114.67 290.592 115.059 291.045 115.326 291.632C115.593 292.208 115.726 292.891 115.726 293.68V294.192H109.646V293.264H114.622L114.35 293.472C114.35 292.672 114.169 292.053 113.806 291.616C113.454 291.168 112.942 290.944 112.27 290.944C111.523 290.944 110.947 291.205 110.542 291.728C110.137 292.24 109.934 292.949 109.934 293.856V294.016C109.934 294.965 110.163 295.68 110.622 296.16C111.091 296.64 111.753 296.88 112.606 296.88C113.075 296.88 113.513 296.816 113.918 296.688C114.334 296.549 114.729 296.325 115.102 296.016L115.63 297.12C115.257 297.451 114.803 297.707 114.27 297.888C113.737 298.059 113.171 298.144 112.574 298.144ZM120.781 298.144C119.906 298.144 119.245 297.909 118.797 297.44C118.349 296.96 118.125 296.245 118.125 295.296V291.184H116.557V289.936H118.125V287.808L119.741 287.376V289.936H121.981V291.184H119.741V295.152C119.741 295.749 119.847 296.176 120.061 296.432C120.274 296.688 120.583 296.816 120.989 296.816C121.191 296.816 121.367 296.8 121.517 296.768C121.677 296.725 121.821 296.677 121.949 296.624V297.936C121.789 298 121.602 298.048 121.389 298.08C121.175 298.123 120.973 298.144 120.781 298.144ZM123.537 298V289.936H125.153V298H123.537ZM123.409 288.256V286.576H125.281V288.256H123.409ZM127.601 298V291.872C127.601 291.563 127.585 291.248 127.553 290.928C127.532 290.597 127.505 290.267 127.473 289.936H129.041L129.185 291.632H128.993C129.239 291.035 129.617 290.581 130.129 290.272C130.641 289.952 131.233 289.792 131.905 289.792C132.855 289.792 133.569 290.053 134.049 290.576C134.54 291.099 134.785 291.909 134.785 293.008V298H133.169V293.104C133.169 292.389 133.025 291.877 132.737 291.568C132.46 291.248 132.033 291.088 131.457 291.088C130.775 291.088 130.231 291.301 129.825 291.728C129.42 292.144 129.217 292.709 129.217 293.424V298H127.601ZM140.798 301.584C140.073 301.584 139.411 301.499 138.814 301.328C138.227 301.157 137.699 300.901 137.23 300.56L137.63 299.376C137.961 299.6 138.286 299.776 138.606 299.904C138.926 300.043 139.262 300.144 139.614 300.208C139.966 300.272 140.329 300.304 140.702 300.304C141.47 300.304 142.046 300.107 142.43 299.712C142.825 299.328 143.022 298.768 143.022 298.032V295.872H143.182C143.011 296.469 142.659 296.944 142.126 297.296C141.603 297.637 140.995 297.808 140.302 297.808C139.566 297.808 138.926 297.648 138.382 297.328C137.849 296.997 137.433 296.533 137.134 295.936C136.846 295.328 136.702 294.613 136.702 293.792C136.702 292.971 136.846 292.261 137.134 291.664C137.433 291.067 137.849 290.608 138.382 290.288C138.926 289.957 139.566 289.792 140.302 289.792C141.006 289.792 141.614 289.968 142.126 290.32C142.649 290.661 142.995 291.131 143.166 291.728L143.022 291.6L143.166 289.936H144.734C144.691 290.267 144.659 290.597 144.638 290.928C144.617 291.248 144.606 291.563 144.606 291.872V297.84C144.606 299.056 144.281 299.984 143.63 300.624C142.99 301.264 142.046 301.584 140.798 301.584ZM140.686 296.544C141.39 296.544 141.95 296.304 142.366 295.824C142.793 295.344 143.006 294.667 143.006 293.792C143.006 292.917 142.793 292.245 142.366 291.776C141.95 291.307 141.39 291.072 140.686 291.072C139.961 291.072 139.385 291.307 138.958 291.776C138.542 292.245 138.334 292.917 138.334 293.792C138.334 294.667 138.542 295.344 138.958 295.824C139.385 296.304 139.961 296.544 140.686 296.544ZM149.811 298.144C149.139 298.144 148.52 298.059 147.955 297.888C147.389 297.717 146.92 297.477 146.547 297.168L147.043 296.064C147.437 296.363 147.875 296.587 148.355 296.736C148.835 296.885 149.325 296.96 149.827 296.96C150.413 296.96 150.856 296.859 151.155 296.656C151.453 296.443 151.603 296.155 151.603 295.792C151.603 295.515 151.507 295.291 151.315 295.12C151.133 294.949 150.829 294.821 150.403 294.736L148.867 294.432C148.184 294.283 147.667 294.027 147.315 293.664C146.963 293.301 146.787 292.837 146.787 292.272C146.787 291.792 146.915 291.365 147.171 290.992C147.437 290.619 147.811 290.325 148.291 290.112C148.781 289.899 149.352 289.792 150.003 289.792C150.6 289.792 151.155 289.877 151.667 290.048C152.179 290.219 152.605 290.464 152.947 290.784L152.435 291.856C152.104 291.579 151.731 291.365 151.315 291.216C150.899 291.056 150.477 290.976 150.051 290.976C149.453 290.976 149.011 291.088 148.723 291.312C148.435 291.536 148.291 291.829 148.291 292.192C148.291 292.469 148.376 292.699 148.547 292.88C148.728 293.051 149.011 293.184 149.395 293.28L150.931 293.584C151.656 293.733 152.2 293.979 152.563 294.32C152.925 294.661 153.107 295.12 153.107 295.696C153.107 296.197 152.968 296.635 152.691 297.008C152.413 297.381 152.029 297.664 151.539 297.856C151.048 298.048 150.472 298.144 149.811 298.144ZM162.573 298.144C161.698 298.144 161.037 297.909 160.589 297.44C160.141 296.96 159.917 296.245 159.917 295.296V291.184H158.349V289.936H159.917V287.808L161.533 287.376V289.936H163.773V291.184H161.533V295.152C161.533 295.749 161.64 296.176 161.853 296.432C162.066 296.688 162.376 296.816 162.781 296.816C162.984 296.816 163.16 296.8 163.309 296.768C163.469 296.725 163.613 296.677 163.741 296.624V297.936C163.581 298 163.394 298.048 163.181 298.08C162.968 298.123 162.765 298.144 162.573 298.144ZM168.979 298.144C167.678 298.144 166.654 297.776 165.907 297.04C165.161 296.304 164.787 295.285 164.787 293.984C164.787 293.141 164.947 292.405 165.267 291.776C165.598 291.147 166.051 290.661 166.627 290.32C167.214 289.968 167.891 289.792 168.659 289.792C169.417 289.792 170.051 289.952 170.563 290.272C171.075 290.592 171.465 291.045 171.731 291.632C171.998 292.208 172.131 292.891 172.131 293.68V294.192H166.051V293.264H171.027L170.755 293.472C170.755 292.672 170.574 292.053 170.211 291.616C169.859 291.168 169.347 290.944 168.675 290.944C167.929 290.944 167.353 291.205 166.947 291.728C166.542 292.24 166.339 292.949 166.339 293.856V294.016C166.339 294.965 166.569 295.68 167.027 296.16C167.497 296.64 168.158 296.88 169.011 296.88C169.481 296.88 169.918 296.816 170.323 296.688C170.739 296.549 171.134 296.325 171.507 296.016L172.035 297.12C171.662 297.451 171.209 297.707 170.675 297.888C170.142 298.059 169.577 298.144 168.979 298.144ZM172.851 298L176.515 293.456V294.224L173.043 289.936H174.979L177.427 293.088H176.851L179.299 289.936H181.219L177.779 294.208V293.472L181.427 298H179.491L176.851 294.624H177.427L174.771 298H172.851ZM185.876 298.144C185.001 298.144 184.34 297.909 183.892 297.44C183.444 296.96 183.22 296.245 183.22 295.296V291.184H181.652V289.936H183.22V287.808L184.836 287.376V289.936H187.076V291.184H184.836V295.152C184.836 295.749 184.942 296.176 185.156 296.432C185.369 296.688 185.678 296.816 186.084 296.816C186.286 296.816 186.462 296.8 186.612 296.768C186.772 296.725 186.916 296.677 187.044 296.624V297.936C186.884 298 186.697 298.048 186.484 298.08C186.27 298.123 186.068 298.144 185.876 298.144ZM188.408 291.84V289.936H190.312V291.84H188.408ZM188.408 298V296.096H190.312V298H188.408Z" fill="#5541D7"/>
<g filter="url(#filter0_d_553_6429)">
<circle cx="398" cy="68" r="58" fill="#F7F7FC"/>
</g>
<path d="M369.37 93.17C368.486 93.17 367.71 92.9887 367.041 92.626C366.384 92.2633 365.874 91.7477 365.511 91.079C365.148 90.399 364.967 89.5943 364.967 88.665C364.967 87.7357 365.148 86.9423 365.511 86.285C365.885 85.6277 366.401 85.1233 367.058 84.772C367.715 84.4207 368.486 84.245 369.37 84.245C369.937 84.245 370.486 84.3357 371.019 84.517C371.563 84.687 372.005 84.9363 372.345 85.265L371.699 86.744C371.393 86.4607 371.047 86.251 370.662 86.115C370.288 85.9677 369.92 85.894 369.557 85.894C368.798 85.894 368.203 86.132 367.772 86.608C367.353 87.084 367.143 87.7753 367.143 88.682C367.143 89.5887 367.353 90.2857 367.772 90.773C368.203 91.2603 368.798 91.504 369.557 91.504C369.908 91.504 370.271 91.436 370.645 91.3C371.03 91.164 371.382 90.9543 371.699 90.671L372.345 92.133C371.994 92.4617 371.546 92.7167 371.002 92.898C370.469 93.0793 369.925 93.17 369.37 93.17ZM377.787 93.17C376.903 93.17 376.138 92.9887 375.492 92.626C374.846 92.2633 374.342 91.7477 373.979 91.079C373.628 90.4103 373.452 89.617 373.452 88.699C373.452 87.781 373.628 86.9933 373.979 86.336C374.342 85.6673 374.846 85.1517 375.492 84.789C376.138 84.4263 376.903 84.245 377.787 84.245C378.671 84.245 379.436 84.4263 380.082 84.789C380.74 85.1517 381.244 85.6673 381.595 86.336C381.958 86.9933 382.139 87.781 382.139 88.699C382.139 89.617 381.958 90.4103 381.595 91.079C381.244 91.7477 380.74 92.2633 380.082 92.626C379.436 92.9887 378.671 93.17 377.787 93.17ZM377.787 91.538C378.456 91.538 378.989 91.3057 379.385 90.841C379.782 90.365 379.98 89.651 379.98 88.699C379.98 87.747 379.782 87.0387 379.385 86.574C378.989 86.1093 378.456 85.877 377.787 85.877C377.119 85.877 376.586 86.1093 376.189 86.574C375.793 87.0387 375.594 87.747 375.594 88.699C375.594 89.651 375.793 90.365 376.189 90.841C376.586 91.3057 377.119 91.538 377.787 91.538ZM387.151 93.17C386.097 93.17 385.309 92.881 384.788 92.303C384.267 91.725 384.006 90.841 384.006 89.651V84.415H386.131V89.634C386.131 90.2687 386.261 90.739 386.522 91.045C386.783 91.3397 387.179 91.487 387.712 91.487C388.313 91.487 388.8 91.283 389.174 90.875C389.559 90.467 389.752 89.9287 389.752 89.26V84.415H391.877V93H389.803V91.249H390.041C389.792 91.861 389.412 92.337 388.902 92.677C388.403 93.0057 387.82 93.17 387.151 93.17ZM394.269 96.672V86.557C394.269 86.2057 394.257 85.8487 394.235 85.486C394.212 85.1233 394.178 84.7663 394.133 84.415H396.19L396.377 86.217H396.19C396.36 85.6163 396.717 85.1403 397.261 84.789C397.816 84.4263 398.456 84.245 399.182 84.245C399.941 84.245 400.604 84.4263 401.171 84.789C401.737 85.1403 402.179 85.6503 402.497 86.319C402.814 86.9763 402.973 87.7697 402.973 88.699C402.973 89.6283 402.814 90.4273 402.497 91.096C402.179 91.7647 401.737 92.2803 401.171 92.643C400.604 92.9943 399.941 93.17 399.182 93.17C398.468 93.17 397.839 92.9943 397.295 92.643C396.751 92.2917 396.388 91.8213 396.207 91.232H396.394V96.672H394.269ZM398.587 91.538C399.267 91.538 399.811 91.3057 400.219 90.841C400.627 90.365 400.831 89.651 400.831 88.699C400.831 87.747 400.627 87.0387 400.219 86.574C399.811 86.1093 399.267 85.877 398.587 85.877C397.918 85.877 397.38 86.1093 396.972 86.574C396.564 87.0387 396.36 87.747 396.36 88.699C396.36 89.651 396.564 90.365 396.972 90.841C397.38 91.3057 397.918 91.538 398.587 91.538ZM408.772 93.17C407.888 93.17 407.123 92.9887 406.477 92.626C405.831 92.2633 405.326 91.7477 404.964 91.079C404.612 90.4103 404.437 89.617 404.437 88.699C404.437 87.781 404.612 86.9933 404.964 86.336C405.326 85.6673 405.831 85.1517 406.477 84.789C407.123 84.4263 407.888 84.245 408.772 84.245C409.656 84.245 410.421 84.4263 411.067 84.789C411.724 85.1517 412.228 85.6673 412.58 86.336C412.942 86.9933 413.124 87.781 413.124 88.699C413.124 89.617 412.942 90.4103 412.58 91.079C412.228 91.7477 411.724 92.2633 411.067 92.626C410.421 92.9887 409.656 93.17 408.772 93.17ZM408.772 91.538C409.44 91.538 409.973 91.3057 410.37 90.841C410.766 90.365 410.965 89.651 410.965 88.699C410.965 87.747 410.766 87.0387 410.37 86.574C409.973 86.1093 409.44 85.877 408.772 85.877C408.103 85.877 407.57 86.1093 407.174 86.574C406.777 87.0387 406.579 87.747 406.579 88.699C406.579 89.651 406.777 90.365 407.174 90.841C407.57 91.3057 408.103 91.538 408.772 91.538ZM415.041 93V86.557C415.041 86.2057 415.03 85.8487 415.007 85.486C414.985 85.1233 414.951 84.7663 414.905 84.415H416.962L417.132 86.115H416.928C417.2 85.5143 417.603 85.0553 418.135 84.738C418.668 84.4093 419.286 84.245 419.988 84.245C420.997 84.245 421.756 84.5283 422.266 85.095C422.776 85.6617 423.031 86.5457 423.031 87.747V93H420.906V87.849C420.906 87.1577 420.77 86.6647 420.498 86.37C420.238 86.064 419.841 85.911 419.308 85.911C418.651 85.911 418.13 86.115 417.744 86.523C417.359 86.931 417.166 87.475 417.166 88.155V93H415.041ZM428.429 93.17C427.693 93.17 427.013 93.085 426.389 92.915C425.777 92.7337 425.262 92.4843 424.842 92.167L425.437 90.739C425.868 91.0337 426.344 91.2603 426.865 91.419C427.387 91.5777 427.914 91.657 428.446 91.657C429.013 91.657 429.432 91.5607 429.704 91.368C429.988 91.1753 430.129 90.9147 430.129 90.586C430.129 90.3253 430.039 90.1213 429.857 89.974C429.687 89.8153 429.41 89.6963 429.024 89.617L427.324 89.294C426.599 89.1353 426.044 88.8633 425.658 88.478C425.284 88.0927 425.097 87.5883 425.097 86.965C425.097 86.4323 425.239 85.962 425.522 85.554C425.817 85.146 426.231 84.8287 426.763 84.602C427.307 84.364 427.942 84.245 428.667 84.245C429.302 84.245 429.897 84.33 430.452 84.5C431.019 84.67 431.495 84.925 431.88 85.265L431.268 86.642C430.917 86.3587 430.515 86.1377 430.061 85.979C429.608 85.8203 429.166 85.741 428.735 85.741C428.146 85.741 427.715 85.8487 427.443 86.064C427.171 86.268 427.035 86.5343 427.035 86.863C427.035 87.1123 427.115 87.322 427.273 87.492C427.443 87.6507 427.704 87.7697 428.055 87.849L429.755 88.172C430.515 88.3193 431.087 88.58 431.472 88.954C431.869 89.3167 432.067 89.8153 432.067 90.45C432.067 91.0167 431.914 91.504 431.608 91.912C431.302 92.32 430.877 92.6317 430.333 92.847C429.789 93.0623 429.155 93.17 428.429 93.17Z" fill="#5541D7"/>
<defs>
<filter id="filter0_d_553_6429" x="330" y="0" width="136" height="136" filterUnits="userSpaceOnUse" color-interpolation-filters="sRGB">
<feFlood flood-opacity="0" result="BackgroundImageFix"/>
<feColorMatrix in="SourceAlpha" type="matrix" values="0 0 0 0 0 0 0 0 0 0 0 0 0 0 0 0 0 0 127 0" result="hardAlpha"/>
<feOffset/>
<feGaussianBlur stdDeviation="5"/>
<feComposite in2="hardAlpha" operator="out"/>
<feColorMatrix type="matrix" values="0 0 0 0 0.722483 0 0 0 0 0.722483 0 0 0 0 0.845833 0 0 0 1 0"/>
<feBlend mode="normal" in2="BackgroundImageFix" result="effect1_dropShadow_553_6429"/>
<feBlend mode="normal" in="SourceGraphic" in2="effect1_dropShadow_553_6429" result="shape"/>
</filter>
</defs>
</svg>
